
<svg width="38" height="39" viewBox="0 0 38 39" fill="none" xmlns="http://www.w3.org/2000/svg">
<path d="M11.6271 27.3436L36 2.90346M11.6271 27.3436C12.2248 27.9105 12.7031 28.5918 13.0337 29.3473C13.3644 30.1027 13.5406 30.917 13.5521 31.7419C13.5635 32.5668 13.4099 33.3857 13.1003 34.15C12.7908 34.9144 12.3316 35.6088 11.7498 36.1922C11.168 36.7755 10.4756 37.236 9.71329 37.5464C8.95102 37.8569 8.13442 38.0109 7.31177 37.9994C6.48912 37.9879 5.6771 37.8112 4.92373 37.4797C4.17036 37.1481 3.49092 36.6685 2.92556 36.0691C1.83829 34.8991 1.24637 33.3515 1.2745 31.7525C1.30264 30.1534 1.94863 28.6278 3.07639 27.4969C4.20415 26.366 5.72561 25.7183 7.32025 25.69C8.91489 25.6618 10.4582 26.2554 11.625 27.3457L11.6271 27.3436ZM25.7412 25.5351L36 35.8222M11.6271 11.3821C11.0617 11.9815 10.3823 12.4611 9.62892 12.7926C8.87555 13.1242 8.06354 13.3009 7.24088 13.3124C6.41823 13.3238 5.60164 13.1698 4.83936 12.8594C4.07709 12.549 3.3846 12.0885 2.80284 11.5052C2.22109 10.9218 1.76186 10.2274 1.4523 9.46303C1.14275 8.69865 0.989155 7.8798 1.0006 7.05488C1.01204 6.22996 1.18828 5.41571 1.51891 4.66025C1.84954 3.9048 2.32785 3.22349 2.92556 2.65657C4.0924 1.5663 5.63571 0.972748 7.23035 1.00096C8.82499 1.02917 10.3465 1.67695 11.4742 2.80782C12.602 3.93868 13.248 5.46435 13.2761 7.06339C13.3042 8.66242 12.7123 10.21 11.625 11.38L11.6271 11.3821ZM11.6271 11.3821L19.5859 19.3629" stroke="#FFD966" stroke-width="2" stroke-linecap="square"/>
</svg>
